<svg xmlns="http://www.w3.org/2000/svg" width="512" height="512" viewBox="0 0 512 512" version="1.1">
	<path d="M 251.422 1.371 C 239.491 6.751, 230.188 33.563, 228.346 67.879 C 227.768 78.653, 227.395 80.592, 225.470 82.829 C 221.816 87.078, 217.964 86.299, 207 79.097 C 187.913 66.560, 163.415 56.601, 148.571 55.347 C 137.841 54.439, 132.685 55.488, 128.507 59.428 C 125.397 62.361, 125 63.308, 125 67.785 C 125 76.268, 130.312 86.143, 140.849 97.250 C 143.850 100.412, 146.123 103.006, 145.902 103.013 C 145.681 103.020, 141.450 103.867, 136.500 104.894 C 112.801 109.811, 92.206 121.954, 74.409 141.505 C 19.408 201.925, 1.825 281.815, 27.201 356 C 52.285 429.334, 116.689 486.022, 196.500 505.017 C 215.466 509.531, 227.987 511.089, 250 511.675 C 272.761 512.281, 291.901 510.428, 313.500 505.526 C 346.608 498.012, 380.086 482.570, 407.237 462.289 C 420.614 452.296, 443.681 429.230, 453.368 416.156 C 476.470 384.982, 489.484 353.118, 495.094 314 C 496.860 301.683, 496.575 271.799, 494.564 258.500 C 487.456 211.486, 464.783 167.176, 431.336 134.933 C 420.746 124.725, 412.912 119.252, 400.400 113.326 C 391.524 109.121, 374.485 104, 369.372 104 C 368.067 104, 367 103.744, 367 103.430 C 367 103.117, 369.587 99.971, 372.750 96.439 C 383.400 84.546, 388.742 73.566, 387.691 65.730 C 387.055 60.989, 385.585 59.177, 380.500 56.863 C 366.652 50.564, 336.613 59.548, 305 79.443 C 293.653 86.584, 291.550 86.971, 287.357 82.689 C 285.474 80.766, 285.077 78.630, 284.096 65.106 C 282.269 39.920, 277.674 21.959, 270 9.999 C 264.566 1.533, 257.915 -1.557, 251.422 1.371" stroke="none" fill="black" fill-rule="evenodd"/>
</svg>